<?xml version="1.0" standalone="no"?>
<!DOCTYPE svg PUBLIC "-//W3C//DTD SVG 20010904//EN"
 "http://www.w3.org/TR/2001/REC-SVG-20010904/DTD/svg10.dtd">
<svg version="1.0" xmlns="http://www.w3.org/2000/svg"
 width="128.000000pt" height="128.000000pt" viewBox="0 0 128.000000 128.000000"
 preserveAspectRatio="xMidYMid meet">
<metadata>
Created by potrace 1.11, written by Peter Selinger 2001-2013
</metadata>
<g transform="translate(0.000000,128.000000) scale(0.100000,-0.100000)"
fill="#000000" stroke="none">
<path d="M395 1241 c-24 -17 -60 -31 -89 -35 -27 -4 -65 -15 -86 -26 -22 -11
-41 -15 -46 -10 -13 13 -93 26 -131 21 -13 -1 -36 -61 -24 -61 5 0 12 -11 15
-24 8 -31 74 -96 122 -120 22 -10 47 -22 56 -27 10 -5 24 -6 31 -3 9 3 17 -3
21 -18 10 -40 7 -45 -36 -57 -61 -18 -138 -62 -155 -87 -7 -12 -11 -32 -9 -45
3 -13 11 -49 17 -79 6 -30 16 -61 22 -69 6 -7 12 -23 13 -35 0 -11 6 -45 13
-75 11 -52 10 -56 -13 -80 -37 -39 -46 -71 -31 -107 23 -54 106 -89 175 -72
10 2 20 -16 35 -59 24 -73 39 -91 105 -127 79 -43 148 -35 189 22 27 38 26 49
-4 95 -29 42 -80 78 -140 97 -81 26 -81 26 -18 79 32 26 78 67 103 91 40 38
50 43 87 41 50 -2 100 21 114 53 10 22 12 22 62 9 29 -8 63 -16 76 -19 34 -7
41 -13 41 -34 0 -29 21 -36 40 -12 27 33 46 12 25 -29 -37 -70 -27 -198 15
-205 8 -1 20 -3 25 -4 27 -6 53 3 81 28 40 34 61 76 68 132 6 51 6 50 59 70
38 14 42 19 43 50 0 19 -3 42 -8 52 -8 18 -75 46 -122 51 -24 3 -32 11 -46 48
-25 63 -94 129 -137 129 -21 0 -33 5 -33 14 0 27 -35 59 -66 58 -29 0 -67 24
-59 38 2 4 -6 12 -20 18 -16 8 -22 17 -18 30 6 26 -43 43 -128 43 -59 1 -64 3
-106 42 -25 23 -51 46 -59 50 -11 6 -10 14 6 45 24 44 26 90 4 120 -20 28 -30
27 -79 -7z m-185 -550 c0 -16 -30 -41 -48 -41 -13 1 -10 7 11 25 31 27 37 30
37 16z m643 -58 c15 -3 27 -8 27 -12 0 -3 3 -16 6 -27 l6 -22 -58 19 c-32 11
-61 25 -65 31 -11 17 11 30 36 22 11 -3 32 -8 48 -11z m-503 -43 c-26 -23 -44
-26 -38 -7 5 13 50 39 57 32 2 -3 -6 -14 -19 -25z m-105 -19 c-18 -36 -25 -39
-25 -12 0 20 28 56 37 47 2 -2 -3 -18 -12 -35z m775 -18 c0 -10 -6 -13 -16 -9
-9 3 -19 6 -23 6 -4 0 -5 14 -3 32 l5 32 18 -23 c11 -13 19 -30 19 -38z m161
16 c62 -27 64 -53 4 -57 -35 -3 -42 1 -58 27 -33 56 -22 62 54 30z m-681 -71
c0 -9 -26 -33 -111 -101 -39 -31 -48 -34 -48 -20 -1 10 -2 32 -3 48 -3 30 -2
31 49 34 15 1 28 14 43 47 l22 45 24 -22 c13 -12 24 -26 24 -31z m-317 -155
c15 -25 26 -48 23 -50 -10 -11 -56 8 -66 27 -10 19 -4 70 9 70 3 0 19 -21 34
-47z m877 -7 c0 -15 -30 -50 -36 -43 -3 2 0 16 5 31 11 28 31 36 31 12z m-546
-212 c25 -9 19 -24 -9 -24 -16 0 -25 6 -25 15 0 16 9 19 34 9z"/>
</g>
</svg>
